
<svg width="40" height="40" viewBox="0 0 40 40" fill="none" xmlns="http://www.w3.org/2000/svg">
  <rect width="40" height="40" rx="8" fill="#0052FF"/>
  <path d="M20 32C26.6274 32 32 26.6274 32 20C32 13.3726 26.6274 8 20 8C13.3726 8 8 13.3726 8 20C8 26.6274 13.3726 32 20 32Z" fill="#0052FF"/>
  <path d="M20.0001 25.9999C16.6863 25.9999 14.0001 23.3137 14.0001 19.9999C14.0001 16.6862 16.6863 13.9999 20.0001 13.9999C23.3138 13.9999 26.0001 16.6862 26.0001 19.9999C26.0001 23.3137 23.3138 25.9999 20.0001 25.9999Z" fill="white"/>
  <path d="M18.4 22.4C18.4 22.8418 18.7582 23.2 19.2 23.2H20.8C21.2418 23.2 21.6 22.8418 21.6 22.4V17.6C21.6 17.1582 21.2418 16.8 20.8 16.8H19.2C18.7582 16.8 18.4 17.1582 18.4 17.6V22.4Z" fill="#0052FF"/>
</svg>
