
<svg width="40" height="40" viewBox="0 0 40 40" fill="none" xmlns="http://www.w3.org/2000/svg">
  <path d="M34.8977 4.13794L22.13 14.1983L24.5629 8.27331L34.8977 4.13794Z" fill="#E17726" stroke="#E17726" stroke-width="0.25" stroke-linecap="round" stroke-linejoin="round"/>
  <path d="M5.09677 4.13794L17.7791 14.2749L15.4371 8.27331L5.09677 4.13794Z" fill="#E27625" stroke="#E27625" stroke-width="0.25" stroke-linecap="round" stroke-linejoin="round"/>
  <path d="M30.2577 27.795L26.7806 33.6426L34.2459 35.8616L36.3805 27.9292L30.2577 27.795Z" fill="#E27625" stroke="#E27625" stroke-width="0.25" stroke-linecap="round" stroke-linejoin="round"/>
  <path d="M3.63562 27.9292L5.75467 35.8616L13.2045 33.6426L9.74292 27.795L3.63562 27.9292Z" fill="#E27625" stroke="#E27625" stroke-width="0.25" stroke-linecap="round" stroke-linejoin="round"/>
  <path d="M12.7878 18.664L10.6996 22.1795L18.0724 22.5488L17.8192 14.6572L12.7878 18.664Z" fill="#E27625" stroke="#E27625" stroke-width="0.25" stroke-linecap="round" stroke-linejoin="round"/>
  <path d="M27.2121 18.664L22.1042 14.5806L21.9277 22.5488L29.3005 22.1795L27.2121 18.664Z" fill="#E27625" stroke="#E27625" stroke-width="0.25" stroke-linecap="round" stroke-linejoin="round"/>
  <path d="M13.2045 33.6425L17.5968 31.3007L13.8198 27.9909L13.2045 33.6425Z" fill="#E27625" stroke="#E27625" stroke-width="0.25" stroke-linecap="round" stroke-linejoin="round"/>
  <path d="M22.4033 31.3007L26.7805 33.6425L26.1803 27.9909L22.4033 31.3007Z" fill="#E27625" stroke="#E27625" stroke-width="0.25" stroke-linecap="round" stroke-linejoin="round"/>
  <path d="M26.7805 33.6426L22.4033 31.3008L22.7936 34.3597L22.7477 35.7849L26.7805 33.6426Z" fill="#D5BFB2" stroke="#D5BFB2" stroke-width="0.25" stroke-linecap="round" stroke-linejoin="round"/>
  <path d="M13.2045 33.6426L17.2523 35.7849L17.2217 34.3597L17.5968 31.3008L13.2045 33.6426Z" fill="#D5BFB2" stroke="#D5BFB2" stroke-width="0.25" stroke-linecap="round" stroke-linejoin="round"/>
  <path d="M17.3287 26.0374L13.6894 24.8462L16.2532 23.5618L17.3287 26.0374Z" fill="#233447" stroke="#233447" stroke-width="0.25" stroke-linecap="round" stroke-linejoin="round"/>
  <path d="M22.6713 26.0374L23.7467 23.5618L26.3259 24.8462L22.6713 26.0374Z" fill="#233447" stroke="#233447" stroke-width="0.25" stroke-linecap="round" stroke-linejoin="round"/>
  <path d="M13.2045 33.6426L13.8503 27.795L9.74292 27.9292L13.2045 33.6426Z" fill="#CC6228" stroke="#CC6228" stroke-width="0.25" stroke-linecap="round" stroke-linejoin="round"/>
  <path d="M26.1496 27.795L26.7806 33.6426L30.2577 27.9292L26.1496 27.795Z" fill="#CC6228" stroke="#CC6228" stroke-width="0.25" stroke-linecap="round" stroke-linejoin="round"/>
  <path d="M29.3004 22.1794L21.9277 22.5486L22.6713 26.0374L23.7467 23.5618L26.3259 24.8462L29.3004 22.1794Z" fill="#CC6228" stroke="#CC6228" stroke-width="0.25" stroke-linecap="round" stroke-linejoin="round"/>
  <path d="M13.6894 24.8462L16.2532 23.5618L17.3287 26.0374L18.0724 22.5486L10.6996 22.1794L13.6894 24.8462Z" fill="#CC6228" stroke="#CC6228" stroke-width="0.25" stroke-linecap="round" stroke-linejoin="round"/>
  <path d="M10.6996 22.1794L13.8198 27.9909L13.6894 24.8462L10.6996 22.1794Z" fill="#E27525" stroke="#E27525" stroke-width="0.25" stroke-linecap="round" stroke-linejoin="round"/>
  <path d="M26.3259 24.8462L26.1802 27.9909L29.3005 22.1794L26.3259 24.8462Z" fill="#E27525" stroke="#E27525" stroke-width="0.25" stroke-linecap="round" stroke-linejoin="round"/>
  <path d="M18.0723 22.5486L17.3287 26.0374L18.2496 30.0443L18.4567 23.9311L18.0723 22.5486Z" fill="#E27525" stroke="#E27525" stroke-width="0.25" stroke-linecap="round" stroke-linejoin="round"/>
  <path d="M21.9276 22.5486L21.5585 23.9157L21.7349 30.0443L22.6712 26.0374L21.9276 22.5486Z" fill="#E27525" stroke="#E27525" stroke-width="0.25" stroke-linecap="round" stroke-linejoin="round"/>
  <path d="M22.6713 26.0375L21.7349 30.0444L22.4033 31.3008L26.1802 27.991L26.3259 24.8463L22.6713 26.0375Z" fill="#F5841F" stroke="#F5841F" stroke-width="0.25" stroke-linecap="round" stroke-linejoin="round"/>
  <path d="M13.6894 24.8463L13.8198 27.991L17.5968 31.3008L18.2496 30.0444L17.3287 26.0375L13.6894 24.8463Z" fill="#F5841F" stroke="#F5841F" stroke-width="0.25" stroke-linecap="round" stroke-linejoin="round"/>
  <path d="M22.7477 35.7849L22.7936 34.3597L22.4339 34.0517H17.5508L17.2217 34.3597L17.2523 35.7849L13.2045 33.6426L14.6598 34.8032L17.5049 36.744H22.4798L25.34 34.8032L26.7805 33.6426L22.7477 35.7849Z" fill="#C0AC9D" stroke="#C0AC9D" stroke-width="0.25" stroke-linecap="round" stroke-linejoin="round"/>
  <path d="M22.4032 31.3007L21.7349 30.0443H18.2496L17.5968 31.3007L17.2217 34.3597L17.5508 34.0517H22.4339L22.7936 34.3597L22.4032 31.3007Z" fill="#161616" stroke="#161616" stroke-width="0.25" stroke-linecap="round" stroke-linejoin="round"/>
  <path d="M35.4671 14.4119L36.5732 8.71863L34.8977 4.13794L22.4033 13.8903L27.2121 18.664L33.9962 20.9292L35.4976 18.9523L34.8212 18.4693L35.8813 17.4879L35.0487 16.8592L36.1089 16.0315L35.4671 14.4119Z" fill="#763E1A" stroke="#763E1A" stroke-width="0.25" stroke-linecap="round" stroke-linejoin="round"/>
  <path d="M3.42676 8.71863L4.5482 14.4119L3.87573 16.0315L4.9512 16.8592L4.11862 17.4879L5.17868 18.4693L4.50232 18.9523L6.00379 20.9292L12.7878 18.664L17.5967 13.8903L5.10233 4.13794L3.42676 8.71863Z" fill="#763E1A" stroke="#763E1A" stroke-width="0.25" stroke-linecap="round" stroke-linejoin="round"/>
  <path d="M33.9962 20.9291L27.2122 18.6639L29.3005 22.1794L26.1802 27.9909L30.2577 27.9291H36.3805L33.9962 20.9291Z" fill="#F5841F" stroke="#F5841F" stroke-width="0.25" stroke-linecap="round" stroke-linejoin="round"/>
  <path d="M12.7878 18.6639L6.00379 20.9291L3.63562 27.9291H9.74292L13.8198 27.9909L10.6996 22.1794L12.7878 18.6639Z" fill="#F5841F" stroke="#F5841F" stroke-width="0.25" stroke-linecap="round" stroke-linejoin="round"/>
  <path d="M21.9276 22.5487L22.4033 13.8903L24.5628 8.27335H15.4371L17.5967 13.8903L18.0723 22.5487L18.2342 23.9466L18.2496 30.0444H21.7349L21.7657 23.9466L21.9276 22.5487Z" fill="#F5841F" stroke="#F5841F" stroke-width="0.25" stroke-linecap="round" stroke-linejoin="round"/>
</svg>
